/* XPM */
static char * calendar_xpm[] = {
"20 16 161 2",
"  	c None",
". 	c #848B98",
"+ 	c #9D8990",
"@ 	c #BC8F96",
"# 	c #867D86",
"$ 	c #A4939B",
"% 	c #CD6466",
"& 	c #D36567",
"* 	c #D3696B",
"= 	c #B27175",
"- 	c #BE787D",
"; 	c #E17376",
"> 	c #94595B",
", 	c #B55052",
"' 	c #A56165",
") 	c #A1757B",
"! 	c #BC4F51",
"~ 	c #BF5154",
"{ 	c #C15356",
"] 	c #C55559",
"^ 	c #CB5D60",
"/ 	c #C25E61",
"( 	c #C76467",
"_ 	c #D96C6E",
": 	c #A25A5C",
"< 	c #634A4B",
"[ 	c #9B4043",
"} 	c #A94C4F",
"| 	c #A25659",
"1 	c #B65759",
"2 	c #AF4446",
"3 	c #B14749",
"4 	c #B65658",
"5 	c #BB5F61",
"6 	c #BD5D5F",
"7 	c #C36668",
"8 	c #CC7679",
"9 	c #B76D6E",
"0 	c #695557",
"a 	c #975052",
"b 	c #C17678",
"c 	c #C58081",
"d 	c #BE6F71",
"e 	c #B04E52",
"f 	c #B4575A",
"g 	c #C07273",
"h 	c #C98687",
"i 	c #CA8B8D",
"j 	c #CD9B9C",
"k 	c #E1BBBC",
"l 	c #DEC7C8",
"m 	c #969192",
"n 	c #6A5C5D",
"o 	c #936061",
"p 	c #C88788",
"q 	c #D29D9E",
"r 	c #D9ADAE",
"s 	c #D2ABAB",
"t 	c #D9B8BA",
"u 	c #D3BDBE",
"v 	c #9A8D8D",
"w 	c #8D8586",
"x 	c #969595",
"y 	c #EBEBEB",
"z 	c #F6F6F6",
"A 	c #B8B8B8",
"B 	c #A79C9D",
"C 	c #F3E6E7",
"D 	c #F8F0F0",
"E 	c #F5F1F1",
"F 	c #ACAAAA",
"G 	c #B6B5B5",
"H 	c #D6D5D5",
"I 	c #999999",
"J 	c #888888",
"K 	c #898A8A",
"L 	c #ECECEC",
"M 	c #FBFBFB",
"N 	c #CACACB",
"O 	c #A1A2A3",
"P 	c #FFFFFF",
"Q 	c #ACACAC",
"R 	c #565656",
"S 	c #8E8E8E",
"T 	c #F3F3F3",
"U 	c #F7F7F7",
"V 	c #A7A7A7",
"W 	c #B4B4B4",
"X 	c #FEFEFE",
"Y 	c #D9D9DA",
"Z 	c #9B9C9C",
"` 	c #EBECEC",
" .	c #E9E9E9",
"..	c #AEAEAE",
"+.	c #878787",
"@.	c #EAEAEA",
"#.	c #EDEDED",
"$.	c #929292",
"%.	c #C3C3C3",
"&.	c #FCFCFC",
"*.	c #F9F9FA",
"=.	c #E0E0E1",
"-.	c #ABACAD",
";.	c #949595",
">.	c #E1E1E1",
",.	c #D2D2D2",
"'.	c #7F7F7F",
").	c #DFDFDF",
"!.	c #E7E7E7",
"~.	c #868686",
"{.	c #C7C7C7",
"].	c #F4F4F4",
"^.	c #E1E1E2",
"/.	c #C9CACC",
"(.	c #9D9EA0",
"_.	c #8D8E8F",
":.	c #D5D5D5",
"<.	c #E2E2E2",
"[.	c #8A8A8A",
"}.	c #D4D4D4",
"|.	c #F0F0F0",
"1.	c #BCBDBD",
"2.	c #C8C9CB",
"3.	c #C1C2C3",
"4.	c #B7B8B9",
"5.	c #BDBEBF",
"6.	c #9A9B9D",
"7.	c #C4C5C5",
"8.	c #F8F8F9",
"9.	c #F1F1F1",
"0.	c #D7D7D9",
"a.	c #C4C3C6",
"b.	c #B3B3B4",
"c.	c #B0AFB0",
"d.	c #B9B8BA",
"e.	c #ACABAD",
"f.	c #929293",
"g.	c #6B6C6D",
"h.	c #AAAAAB",
"i.	c #D3D3D4",
"j.	c #C5C5C6",
"k.	c #B2B2B3",
"l.	c #A3A2A4",
"m.	c #9A9A9B",
"n.	c #8B8A8C",
"o.	c #858587",
"p.	c #7D7C7E",
"q.	c #6F6F71",
"r.	c #666768",
"s.	c #636465",
"t.	c #5D5E60",
"u.	c #777778",
"v.	c #7F7F80",
"w.	c #79797A",
"x.	c #767677",
"y.	c #707072",
"z.	c #6E6F70",
"A.	c #6F7071",
"B.	c #6C6D6E",
"C.	c #6C6C6D",
"D.	c #717272",
"                  .                     ",
"                  + @                   ",
"    # $     % & * = - ; >               ",
"  , ' ) ! ~ { ] ^ / ( _ :               ",
"< [ } | 1 2 3 4 5 6 7 8 9               ",
"0 a b c d e f g h i j k l m             ",
"n o p q r s t u v w x y z A             ",
"  B C D E F G H I J K L M N             ",
"  O z P Q R S T U V W M X Y             ",
"  Z ` P  ...+.@.#.$.%.&.*.=.-.          ",
"  ;.>.P X ,.'.).!.~.{.].^./.(.          ",
"  _.:.X P <.[.}.|.1.2.3.4.5.6.          ",
"    7.8.U 9.!.0.a.b.c.d.e.f.g.          ",
"    h.i.j.k.l.m.n.o.p.q.r.s.t.          ",
"    u.v.w.x.y.z.A.B.                    ",
"    C.D.A.                              "};
