<?xml version="1.0" encoding="UTF-8" standalone="no"?>
<!-- Created with Inkscape (http://www.inkscape.org/) -->
<svg
   xmlns:dc="http://purl.org/dc/elements/1.1/"
   xmlns:cc="http://web.resource.org/cc/"
   xmlns:rdf="http://www.w3.org/1999/02/22-rdf-syntax-ns#"
   xmlns:svg="http://www.w3.org/2000/svg"
   xmlns="http://www.w3.org/2000/svg"
   xmlns:xlink="http://www.w3.org/1999/xlink"
   xmlns:sodipodi="http://sodipodi.sourceforge.net/DTD/sodipodi-0.dtd"
   xmlns:inkscape="http://www.inkscape.org/namespaces/inkscape"
   width="1052.3622"
   height="744.09448"
   id="svg2"
   sodipodi:version="0.32"
   inkscape:version="0.45.1"
   version="1.0"
   sodipodi:docbase="/home/sergio/projects/swaml/berlios/doc/talks/20080422-swsm2008/images"
   sodipodi:docname="experiment.svg"
   inkscape:output_extension="org.inkscape.output.svg.inkscape"
   inkscape:export-filename="/home/sergio/projects/swaml/berlios/doc/talks/20080422-swsm2008/images/experiment.png"
   inkscape:export-xdpi="90"
   inkscape:export-ydpi="90">
  <defs
     id="defs4" />
  <sodipodi:namedview
     id="base"
     pagecolor="#ffffff"
     bordercolor="#666666"
     borderopacity="1.0"
     gridtolerance="10000"
     guidetolerance="10"
     objecttolerance="10"
     inkscape:pageopacity="0.0"
     inkscape:pageshadow="2"
     inkscape:zoom="0.7"
     inkscape:cx="593.77813"
     inkscape:cy="629.49773"
     inkscape:document-units="px"
     inkscape:current-layer="layer1"
     width="1052.3622px"
     height="744.09448px"
     inkscape:window-width="1024"
     inkscape:window-height="698"
     inkscape:window-x="0"
     inkscape:window-y="25"
     showguides="false"
     showgrid="true" />
  <metadata
     id="metadata7">
    <rdf:RDF>
      <cc:Work
         rdf:about="">
        <dc:format>image/svg+xml</dc:format>
        <dc:type
           rdf:resource="http://purl.org/dc/dcmitype/StillImage" />
      </cc:Work>
    </rdf:RDF>
  </metadata>
  <g
     inkscape:label="Layer 1"
     inkscape:groupmode="layer"
     id="layer1">
    <image
       y="5.8087769"
       x="21.142853"
       id="image2218"
       height="151.4286"
       width="152.85713"
       sodipodi:absref="/home/sergio/projects/swaml/berlios/doc/talks/20080409-deri-galway/images/gnome.png"
       xlink:href="gnome.png" />
    <image
       y="187.80878"
       x="41.428562"
       id="image2269"
       height="121.42857"
       width="105.42857"
       sodipodi:absref="/home/sergio/projects/swaml/berlios/doc/talks/20080409-deri-galway/images/debian.png"
       xlink:href="debian.png" />
    <image
       y="124.09448"
       x="868"
       id="image2312"
       height="60"
       width="181.42857"
       sodipodi:absref="/home/sergio/projects/swaml/berlios/doc/talks/20080409-deri-galway/images/advogato.png"
       xlink:href="advogato.png" />
    <image
       y="45.23735"
       x="409.99994"
       id="image17059"
       height="240.85716"
       width="293.71429"
       sodipodi:absref="/home/sergio/projects/vapour/doc/papers/SFSW2008/images/database.png"
       xlink:href="/home/sergio/projects/vapour/doc/papers/SFSW2008/images/database.png" />
    <g
       id="g2808"
       image-rendering="optimizeQuality"
       text-rendering="geometricPrecision"
       shape-rendering="geometricPrecision"
       transform="matrix(1,0,0,0.8878268,492.54877,56.8676)">
      <path
         id="path2810"
         d="M 84.45,66.836 C 83.814,66.499 83.166,66.212 82.514,65.957 L 82.98,65.919 C 82.98,65.919 78.829,64.081 78.466,50.739 C 78.107,37.395 82.423,35.119 82.423,35.119 L 81.803,35.146 C 85.064,33.473 87.869,30.83 89.72,27.342 C 94.543,18.27 91.092,7.001 82.018,2.177 C 72.94,-2.641 61.674,0.802 56.854,9.883 C 54.872,13.608 54.309,17.7 54.935,21.566 L 54.723,21.24 C 54.723,21.24 55.816,26.082 44.465,33.128 C 33.116,40.178 27.996,36.668 27.996,36.668 L 28.322,37.148 C 27.997,36.947 27.686,36.742 27.347,36.565 C 18.269,31.741 7,35.188 2.178,44.266 C -2.642,53.343 0.806,64.607 9.881,69.433 C 16.647,73.024 24.625,72.023 30.246,67.519 L 30.124,67.755 C 30.124,67.755 34.256,64.356 46.164,70.749 C 55.564,75.793 56.96,80.737 57.139,82.595 C 56.893,89.488 60.486,96.249 66.986,99.702 C 76.061,104.527 87.33,101.077 92.15,92.001 C 96.974,82.926 93.528,71.656 84.45,66.836 z M 63.466,69.282 C 61.962,69.814 57.665,70.403 48.619,65.552 C 38.822,60.292 37.368,55.898 37.155,54.579 C 37.294,52.979 37.205,51.382 36.932,49.824 L 36.992,49.914 C 36.992,49.914 36.194,45.64 47.404,38.679 C 57.437,32.451 61.998,33.69 62.847,34.015 C 63.393,34.386 63.959,34.732 64.553,35.048 C 65.682,35.648 66.846,36.118 68.025,36.466 C 69.405,37.78 71.945,41.511 72.209,51.32 C 72.479,61.203 69.575,65.014 67.992,66.362 C 66.362,67.1 64.836,68.085 63.466,69.282 z "
         style="fill:#0c479c" />
      <g
         id="g2812">
        <path
           id="path2814"
           d="M 62.239,8.1 C 56.824,14.023 56.71,22.736 61.927,27.666 C 59.348,25.183 59.404,20.015 62.01,15.069 C 62.345,14.626 63.316,13.579 64.735,14.055 C 64.878,14.104 64.972,14.117 65.027,14.108 C 65.348,14.177 65.677,14.218 66.017,14.203 C 68.172,14.105 69.839,12.282 69.742,10.126 C 69.698,9.159 69.297,8.303 68.677,7.646 C 73.679,4.369 79.419,3.994 81.771,6.142 L 81.861,6.148 C 76.488,1.242 67.705,2.119 62.239,8.1 z "
           style="fill:#ffffff" />
      </g>
      <g
         id="g2816">
        <path
           id="path2818"
           d="M 7.632,62.845 C 7.586,62.798 7.539,62.743 7.491,62.697 C 7.521,62.728 7.55,62.766 7.586,62.799 L 7.632,62.845 z "
           style="fill:#ffffff" />
        <path
           id="path2820"
           d="M 7.805,43.13 C 2.389,49.054 2.276,57.765 7.492,62.696 C 4.914,60.212 4.969,55.044 7.575,50.098 C 7.911,49.654 8.883,48.608 10.302,49.084 C 10.443,49.133 10.538,49.145 10.594,49.138 C 10.915,49.207 11.245,49.248 11.584,49.233 C 13.74,49.134 15.406,47.311 15.309,45.157 C 15.264,44.19 14.864,43.333 14.246,42.677 C 19.245,39.401 24.986,39.023 27.338,41.172 L 27.427,41.18 C 22.054,36.271 13.269,37.147 7.805,43.13 z "
           style="fill:#ffffff" />
      </g>
      <g
         id="g2822">
        <path
           id="path2824"
           d="M 65.256,92.504 C 65.209,92.456 65.162,92.402 65.115,92.356 C 65.144,92.387 65.174,92.425 65.209,92.457 L 65.256,92.504 z "
           style="fill:#ffffff" />
        <path
           id="path2826"
           d="M 65.428,72.786 C 60.012,78.712 59.899,87.425 65.115,92.355 C 62.535,89.872 62.592,84.702 65.197,79.758 C 65.533,79.313 66.504,78.268 67.924,78.744 C 68.067,78.791 68.159,78.805 68.216,78.797 C 68.536,78.866 68.867,78.907 69.206,78.893 C 71.36,78.793 73.026,76.969 72.929,74.813 C 72.885,73.847 72.484,72.991 71.866,72.334 C 76.866,69.059 82.605,68.682 84.959,70.83 L 85.047,70.837 C 79.677,65.93 70.891,66.807 65.428,72.786 z "
           style="fill:#ffffff" />
      </g>
    </g>
    <path
       style="fill:#ffffff;fill-opacity:1;fill-rule:evenodd;stroke:#000000;stroke-width:2.8056705;stroke-linecap:butt;stroke-linejoin:round;stroke-dasharray:none;stroke-opacity:1"
       d="M 858.96444,139.73384 L 721.07193,139.10481 C 721.07193,139.10481 720.81652,124.54561 721.22908,124.54607 C 721.642,124.54652 681.65919,156.72306 681.65919,156.72306 L 715.98945,189.22021 C 715.98945,189.22021 717.38244,174.90137 717.37988,175.14007 C 717.37729,175.37877 858.56775,176.48862 858.15746,176.24947 L 858.96444,139.73384 z "
       id="path2855"
       sodipodi:nodetypes="cccccccc" />
    <path
       style="fill:#ffffff;fill-opacity:1;fill-rule:evenodd;stroke:#000000;stroke-width:3.36272192;stroke-linecap:butt;stroke-linejoin:round;stroke-dasharray:none;stroke-opacity:1"
       d="M 161.89369,209.03528 L 359.57497,180.06352 C 359.57497,180.06352 358.10724,165.69095 357.51562,165.77622 C 356.92348,165.86157 418.31864,189.28848 418.31864,189.28848 L 373.17712,228.31073 C 373.17712,228.31073 369.3756,214.51351 369.40936,214.74776 C 369.44313,214.98201 167.09265,245.1048 167.65098,244.7852 L 161.89369,209.03528 z "
       id="path2857"
       sodipodi:nodetypes="cccccccc"
       inkscape:transform-center-x="27.142857"
       inkscape:transform-center-y="11.428571" />
    <text
       xml:space="preserve"
       style="font-size:20px;font-style:normal;font-weight:bold;fill:#000000;fill-opacity:1;stroke:none;stroke-width:1px;stroke-linecap:butt;stroke-linejoin:miter;stroke-opacity:1;font-family:Bitstream Vera Sans"
       x="171.2766"
       y="257.89163"
       id="text2891"
       transform="matrix(0.9884057,-0.1518362,0.1518362,0.9884057,0,0)"><tspan
         sodipodi:role="line"
         id="tspan2893"
         x="171.2766"
         y="257.89163">Tidy + XSLT</tspan></text>
    <text
       xml:space="preserve"
       style="font-size:16px;font-style:normal;font-weight:normal;fill:#000000;fill-opacity:1;stroke:none;stroke-width:1px;stroke-linecap:butt;stroke-linejoin:miter;stroke-opacity:1;font-family:Bitstream Vera Sans"
       x="48.28569"
       y="148.9516"
       id="text2921"><tspan
         sodipodi:role="line"
         id="tspan2923"
         x="48.28569"
         y="148.9516">mailing lists</tspan></text>
    <text
       xml:space="preserve"
       style="font-size:16px;font-style:normal;font-weight:normal;fill:#000000;fill-opacity:1;stroke:none;stroke-width:1px;stroke-linecap:butt;stroke-linejoin:miter;stroke-opacity:1;font-family:Bitstream Vera Sans"
       x="47.112167"
       y="326.50854"
       id="text2925"><tspan
         sodipodi:role="line"
         id="tspan2927"
         x="47.112167"
         y="326.50854">mailing lists</tspan></text>
    <text
       xml:space="preserve"
       style="font-size:20px;font-style:normal;font-weight:bold;fill:#000000;fill-opacity:1;stroke:none;stroke-width:1px;stroke-linecap:butt;stroke-linejoin:miter;stroke-opacity:1;font-family:Bitstream Vera Sans"
       x="748.5152"
       y="148.93213"
       id="text2895"
       transform="matrix(0.9998167,1.9147268e-2,-1.9147268e-2,0.9998167,0,0)"><tspan
         sodipodi:role="line"
         x="748.5152"
         y="148.93213"
         id="tspan2899">Crawler</tspan></text>
    <path
       style="fill:#ffffff;fill-opacity:1;fill-rule:evenodd;stroke:#000000;stroke-width:3.36272192;stroke-linecap:butt;stroke-linejoin:round;stroke-dasharray:none;stroke-opacity:1"
       d="M 161.89369,101.52829 L 359.57497,130.50005 C 359.57497,130.50005 358.10724,144.87262 357.51562,144.78735 C 356.92348,144.702 418.31864,121.27509 418.31864,121.27509 L 373.17712,82.25284 C 373.17712,82.25284 369.3756,96.05006 369.40936,95.81581 C 369.44313,95.58156 167.09265,65.458769 167.65098,65.778369 L 161.89369,101.52829 z "
       id="path2184"
       sodipodi:nodetypes="cccccccc"
       inkscape:transform-center-x="27.142857"
       inkscape:transform-center-y="-11.428568" />
    <text
       xml:space="preserve"
       style="font-size:20px;font-style:normal;font-weight:bold;fill:#000000;fill-opacity:1;stroke:none;stroke-width:1px;stroke-linecap:butt;stroke-linejoin:miter;stroke-opacity:1;font-family:Bitstream Vera Sans"
       x="240.34895"
       y="62.435135"
       id="text2883"
       transform="matrix(0.98707,0.1602896,-0.1602896,0.98707,0,0)"><tspan
         sodipodi:role="line"
         id="tspan2885"
         x="240.34895"
         y="62.435135">SWAML</tspan></text>
  </g>
</svg>
